<?xml version="1.0" standalone="no"?>
<!DOCTYPE svg PUBLIC "-//W3C//DTD SVG 20010904//EN"
 "http://www.w3.org/TR/2001/REC-SVG-20010904/DTD/svg10.dtd">
<svg version="1.0" xmlns="http://www.w3.org/2000/svg"
 width="2245.000000pt" height="1268.000000pt" viewBox="0 0 2245.000000 1268.000000"
 preserveAspectRatio="xMidYMid meet">

<g transform="translate(0.000000,1268.000000) scale(0.100000,-0.100000)"
fill="#000000" stroke="none">
<path d="M11207 6252 l-5277 -5277 -2273 2273 -2272 2272 -67 -67 -67 -68
2344 -2345 2344 -2346 5346 5346 5345 5345 -72 73 -73 72 -5278 -5278z"/>
<path d="M16107 6252 l-5277 -5277 -944 944 -944 944 -76 -51 c-42 -28 -76
-55 -76 -59 1 -4 462 -470 1025 -1034 l1024 -1025 5345 5345 5346 5346 -72 73
-73 72 -5278 -5278z"/>
</g>
</svg>
